<?xml version="1.0" standalone="no"?>
<!DOCTYPE svg PUBLIC "-//W3C//DTD SVG 20010904//EN"
 "http://www.w3.org/TR/2001/REC-SVG-20010904/DTD/svg10.dtd">
<svg version="1.0" xmlns="http://www.w3.org/2000/svg"
 width="147.000000pt" height="55.000000pt" viewBox="0 0 147.000000 55.000000"
 preserveAspectRatio="xMidYMid meet">
<g transform="translate(0.000000,55.000000) scale(0.100000,-0.100000)"
fill="#03a1d7" stroke="none">
<path d="M70 264 l0 -244 286 0 286 0 89 81 89 81 0 -81 0 -81 40 0 40 0 0
200 0 200 50 0 50 0 0 -100 0 -100 180 0 180 0 0 -55 0 -55 -180 0 -180 0 0
-45 0 -45 225 0 225 0 0 145 0 145 -185 0 -185 0 0 55 0 55 185 0 185 0 0 45
0 44 -690 0 -690 0 0 -245z m666 37 l39 -44 -40 -34 c-22 -19 -61 -53 -87 -75
l-48 -40 0 172 0 172 48 -54 c27 -29 66 -73 88 -97z m-226 -36 l0 -155 -175 0
-175 0 0 155 0 155 175 0 175 0 0 -155z m310 120 c0 -19 -1 -35 -3 -35 -2 0
-18 16 -37 35 l-34 35 37 0 c36 0 37 -1 37 -35z"/>
</g>
</svg>
